<svg width="35" height="53" viewBox="0 0 35 53" fill="none" xmlns="http://www.w3.org/2000/svg">
<path d="M34.4868 23.4872C34.3243 23.6912 34.1313 23.8529 33.9188 23.9633C33.7064 24.0737 33.4787 24.1305 33.2487 24.1305C33.0188 24.1305 32.7911 24.0737 32.5786 23.9633C32.3662 23.8529 32.1732 23.6912 32.0107 23.4872L19.2497 7.48934V50.4492C19.2497 51.0309 19.0653 51.5888 18.7372 52.0001C18.409 52.4115 17.9639 52.6426 17.4998 52.6426C17.0357 52.6426 16.5906 52.4115 16.2624 52.0001C15.9343 51.5888 15.7499 51.0309 15.7499 50.4492V7.48934L2.9889 23.4872C2.66055 23.8988 2.21521 24.13 1.75086 24.13C1.2865 24.13 0.841163 23.8988 0.512814 23.4872C0.184464 23.0757 3.45972e-09 22.5175 0 21.9354C-3.45972e-09 21.3534 0.184464 20.7952 0.512814 20.3836L16.2618 0.643286C16.4243 0.439354 16.6173 0.277573 16.8297 0.167194C17.0421 0.0568141 17.2698 0 17.4998 0C17.7298 0 17.9575 0.0568141 18.1699 0.167194C18.3823 0.277573 18.5753 0.439354 18.7378 0.643286L34.4868 20.3836C34.6495 20.5873 34.7786 20.8292 34.8666 21.0955C34.9547 21.3618 35 21.6472 35 21.9354C35 22.2237 34.9547 22.5091 34.8666 22.7753C34.7786 23.0416 34.6495 23.2835 34.4868 23.4872Z" fill="black"/>
</svg>
