<svg width="22" height="23" viewBox="0 0 22 23" fill="none" xmlns="http://www.w3.org/2000/svg">
<path d="M20.5002 21.2028L15.7953 16.3609M15.7953 16.3609C16.6001 15.5327 17.2385 14.5495 17.6741 13.4673C18.1096 12.3852 18.3338 11.2254 18.3338 10.0541C18.3338 8.88286 18.1096 7.72305 17.6741 6.64094C17.2385 5.55882 16.6001 4.57558 15.7953 3.74736C14.9905 2.91915 14.0351 2.26217 12.9836 1.81394C11.932 1.36571 10.805 1.13501 9.66689 1.13501C8.52874 1.13501 7.40173 1.36571 6.35021 1.81394C5.2987 2.26217 4.34327 2.91915 3.53847 3.74736C1.91312 5.42002 1 7.68864 1 10.0541C1 12.4196 1.91312 14.6882 3.53847 16.3609C5.16383 18.0336 7.36829 18.9733 9.66689 18.9733C11.9655 18.9733 14.1699 18.0336 15.7953 16.3609Z" stroke="black" stroke-width="1.625" stroke-linecap="round" stroke-linejoin="round"/>
</svg>
