<svg width="27" height="25" viewBox="0 0 27 25" fill="none" xmlns="http://www.w3.org/2000/svg">
<path d="M13.6237 0C20.8737 0 26.75 4.58 26.75 10.2313C26.75 15.8813 20.8737 20.4613 13.625 20.4613C12.9033 20.46 12.1823 20.4141 11.4662 20.3238L5.95625 23.9275C5.33 24.2587 5.10875 24.2225 5.36625 23.4113L6.48125 18.8138C2.88125 16.9888 0.5 13.8263 0.5 10.2313C0.5 4.58125 6.375 0 13.625 0M21.01 10.075L22.8475 8.295C22.9535 8.18489 23.0127 8.03792 23.0125 7.88506C23.0123 7.73219 22.9528 7.58537 22.8465 7.47551C22.7402 7.36565 22.5954 7.30134 22.4427 7.29611C22.2899 7.29089 22.1411 7.34516 22.0275 7.4475L19.6175 9.78V7.8525C19.6175 7.69602 19.5553 7.54595 19.4447 7.43531C19.334 7.32466 19.184 7.2625 19.0275 7.2625C18.871 7.2625 18.721 7.32466 18.6103 7.43531C18.4997 7.54595 18.4375 7.69602 18.4375 7.8525V11.0487C18.4167 11.1401 18.4167 11.2349 18.4375 11.3263V13.125C18.4375 13.2815 18.4997 13.4315 18.6103 13.5422C18.721 13.6528 18.871 13.715 19.0275 13.715C19.184 13.715 19.334 13.6528 19.4447 13.5422C19.5553 13.4315 19.6175 13.2815 19.6175 13.125V11.4213L20.1512 10.905L21.9363 13.4462C21.9808 13.5097 22.0374 13.5637 22.1029 13.6053C22.1684 13.6469 22.2414 13.6751 22.3177 13.6885C22.3941 13.7018 22.4724 13.7 22.548 13.6831C22.6237 13.6662 22.6953 13.6346 22.7588 13.59C22.8222 13.5454 22.8762 13.4888 22.9178 13.4234C22.9594 13.3579 22.9876 13.2849 23.001 13.2085C23.0143 13.1321 23.0125 13.0539 22.9956 12.9782C22.9787 12.9025 22.9471 12.8309 22.9025 12.7675L21.01 10.075ZM17.3125 12.48H15.4875V7.87125C15.4805 7.71963 15.4154 7.57654 15.3056 7.47172C15.1958 7.36689 15.0499 7.3084 14.8981 7.3084C14.7463 7.3084 14.6004 7.36689 14.4906 7.47172C14.3809 7.57654 14.3157 7.71963 14.3088 7.87125V13.07C14.3088 13.395 14.5712 13.66 14.8975 13.66H17.3125C17.469 13.66 17.619 13.5978 17.7297 13.4872C17.8403 13.3765 17.9025 13.2265 17.9025 13.07C17.9025 12.9135 17.8403 12.7635 17.7297 12.6528C17.619 12.5422 17.469 12.48 17.3125 12.48ZM9.99125 11.1162L10.8612 8.98125L11.6588 11.115L9.99125 11.1162ZM13.145 11.725L13.1475 11.705C13.1471 11.5564 13.0904 11.4135 12.9887 11.305L11.6812 7.805C11.6264 7.63821 11.522 7.49212 11.382 7.38624C11.2419 7.28037 11.0729 7.21976 10.8975 7.2125C10.721 7.21242 10.5485 7.26574 10.4028 7.36546C10.2572 7.46519 10.1451 7.60664 10.0813 7.77125L8.00375 12.865C7.94457 13.0099 7.94537 13.1723 8.00597 13.3166C8.06657 13.4609 8.182 13.5752 8.32687 13.6344C8.47175 13.6936 8.6342 13.6928 8.77848 13.6322C8.92277 13.5716 9.03707 13.4561 9.09625 13.3113L9.51125 12.295H12.0987L12.4712 13.295C12.4967 13.3697 12.5368 13.4386 12.5893 13.4976C12.6419 13.5565 12.7057 13.6043 12.777 13.6382C12.8483 13.672 12.9257 13.6912 13.0046 13.6946C13.0835 13.6979 13.1622 13.6855 13.2362 13.6578C13.3102 13.6302 13.3778 13.5881 13.4352 13.5338C13.4926 13.4796 13.5385 13.4144 13.5702 13.3421C13.6019 13.2698 13.6188 13.1918 13.6198 13.1129C13.6208 13.034 13.606 12.9556 13.5762 12.8825L13.145 11.725ZM8.99125 7.8775C8.99158 7.80003 8.97659 7.72327 8.94713 7.65162C8.91768 7.57997 8.87434 7.51485 8.81962 7.46001C8.7649 7.40518 8.69988 7.36171 8.62829 7.3321C8.5567 7.30249 8.47997 7.28733 8.4025 7.2875H4.34625C4.18977 7.2875 4.0397 7.34966 3.92906 7.46031C3.81841 7.57095 3.75625 7.72102 3.75625 7.8775C3.75625 8.03398 3.81841 8.18405 3.92906 8.29469C4.0397 8.40534 4.18977 8.4675 4.34625 8.4675H5.79625V13.1375C5.79625 13.294 5.85841 13.444 5.96906 13.5547C6.0797 13.6653 6.22977 13.7275 6.38625 13.7275C6.54273 13.7275 6.6928 13.6653 6.80344 13.5547C6.91409 13.444 6.97625 13.294 6.97625 13.1375V8.4675H8.40125C8.47882 8.46783 8.55569 8.4528 8.62742 8.42326C8.69916 8.39373 8.76433 8.35028 8.81918 8.29543C8.87403 8.24058 8.91748 8.17541 8.94701 8.10367C8.97655 8.03194 8.99158 7.95507 8.99125 7.8775Z" fill="#CCCCCC"/>
</svg>
