<svg width="22" height="22" viewBox="0 0 22 22" fill="none" xmlns="http://www.w3.org/2000/svg">
<path d="M10.75 8.93904C11.2479 8.93904 11.741 8.83812 12.201 8.64202C12.661 8.44593 13.079 8.15851 13.4311 7.79617C13.7832 7.43383 14.0625 7.00368 14.253 6.53027C14.4436 6.05685 14.5417 5.54945 14.5417 5.03703C14.5417 4.52461 14.4436 4.01721 14.253 3.54379C14.0625 3.07038 13.7832 2.64022 13.4311 2.27789C13.079 1.91555 12.661 1.62813 12.201 1.43204C11.741 1.23594 11.2479 1.13501 10.75 1.13501C9.74439 1.13501 8.77996 1.54612 8.06889 2.27789C7.35781 3.00966 6.95833 4.00215 6.95833 5.03703C6.95833 6.07191 7.35781 7.0644 8.06889 7.79617C8.77996 8.52794 9.74439 8.93904 10.75 8.93904ZM1 20.5336V21.2025H20.5V20.5336C20.5 18.0363 20.5 16.7877 20.0277 15.8333C19.6122 14.9943 18.9493 14.3121 18.134 13.8846C17.2067 13.3985 15.9933 13.3985 13.5667 13.3985H7.93333C5.50667 13.3985 4.29333 13.3985 3.366 13.8846C2.55067 14.3121 1.88778 14.9943 1.47233 15.8333C1 16.7877 1 18.0363 1 20.5336Z" stroke="black" stroke-width="1.5" stroke-linecap="round" stroke-linejoin="round"/>
</svg>
