<svg width="33" height="23" viewBox="0 0 33 23" fill="none" xmlns="http://www.w3.org/2000/svg">
<path d="M31.5534 9H30.0854L26.3095 1.1875C26.1386 0.834034 25.86 0.533724 25.5073 0.322956C25.1545 0.112187 24.743 4.63025e-06 24.3223 0H8.33786C7.91723 4.63025e-06 7.50563 0.112187 7.15293 0.322956C6.80022 0.533724 6.52155 0.834034 6.35067 1.1875L2.57475 9H1.10679C0.818397 9 0.541818 9.10536 0.337895 9.29289C0.133972 9.48043 0.0194092 9.73478 0.0194092 10C0.0194092 10.2652 0.133972 10.5196 0.337895 10.7071C0.541818 10.8946 0.818397 11 1.10679 11H2.19417V21C2.19417 21.5304 2.42329 22.0391 2.83114 22.4142C3.23898 22.7893 3.79214 23 4.36892 23H7.63106C8.20784 23 8.761 22.7893 9.16885 22.4142C9.57669 22.0391 9.80582 21.5304 9.80582 21V19H22.8544V21C22.8544 21.5304 23.0835 22.0391 23.4913 22.4142C23.8992 22.7893 24.4523 23 25.0291 23H28.2913C28.868 23 29.4212 22.7893 29.829 22.4142C30.2369 22.0391 30.466 21.5304 30.466 21V11H31.5534C31.8418 11 32.1184 10.8946 32.3223 10.7071C32.5262 10.5196 32.6408 10.2652 32.6408 10C32.6408 9.73478 32.5262 9.48043 32.3223 9.29289C32.1184 9.10536 31.8418 9 31.5534 9ZM8.33786 2H24.3223L27.7054 9H4.95475L8.33786 2ZM7.63106 21H4.36892V19H7.63106V21ZM25.0291 21V19H28.2913V21H25.0291ZM28.2913 17H4.36892V11H28.2913V17ZM6.54368 14C6.54368 13.7348 6.65824 13.4804 6.86217 13.2929C7.06609 13.1054 7.34267 13 7.63106 13H9.80582C10.0942 13 10.3708 13.1054 10.5747 13.2929C10.7786 13.4804 10.8932 13.7348 10.8932 14C10.8932 14.2652 10.7786 14.5196 10.5747 14.7071C10.3708 14.8946 10.0942 15 9.80582 15H7.63106C7.34267 15 7.06609 14.8946 6.86217 14.7071C6.65824 14.5196 6.54368 14.2652 6.54368 14ZM21.767 14C21.767 13.7348 21.8815 13.4804 22.0855 13.2929C22.2894 13.1054 22.566 13 22.8544 13H25.0291C25.3175 13 25.5941 13.1054 25.798 13.2929C26.0019 13.4804 26.1165 13.7348 26.1165 14C26.1165 14.2652 26.0019 14.5196 25.798 14.7071C25.5941 14.8946 25.3175 15 25.0291 15H22.8544C22.566 15 22.2894 14.8946 22.0855 14.7071C21.8815 14.5196 21.767 14.2652 21.767 14Z" fill="#545454"/>
</svg>
