<svg width="24" height="27" viewBox="0 0 24 27" fill="none" xmlns="http://www.w3.org/2000/svg">
<path d="M11.8416 15.9999C15.0399 15.9999 17.6409 13.6079 17.6409 10.6666C17.6409 7.72525 15.0399 5.33325 11.8416 5.33325C8.64325 5.33325 6.04224 7.72525 6.04224 10.6666C6.04224 13.6079 8.64325 15.9999 11.8416 15.9999ZM11.8416 7.99992C13.4408 7.99992 14.7413 9.19592 14.7413 10.6666C14.7413 12.1373 13.4408 13.3333 11.8416 13.3333C10.2424 13.3333 8.94191 12.1373 8.94191 10.6666C8.94191 9.19592 10.2424 7.99992 11.8416 7.99992Z" fill="#545454"/>
<path d="M11.0006 26.4187C11.246 26.5798 11.54 26.6665 11.8415 26.6665C12.143 26.6665 12.437 26.5798 12.6824 26.4187C13.1232 26.132 23.4823 19.2533 23.4402 10.6667C23.4402 4.78533 18.2367 0 11.8415 0C5.44627 0 0.242803 4.78533 0.242803 10.66C0.200758 19.2533 10.5599 26.132 11.0006 26.4187ZM11.8415 2.66667C16.639 2.66667 20.5405 6.25467 20.5405 10.6733C20.571 16.5907 14.1786 21.904 11.8415 23.6467C9.50582 21.9027 3.11203 16.588 3.14248 10.6667C3.14248 6.25467 7.04399 2.66667 11.8415 2.66667Z" fill="#545454"/>
</svg>
