<svg width="30" height="28" viewBox="0 0 30 28" fill="none" xmlns="http://www.w3.org/2000/svg">
<path d="M2.26221 14C2.26221 15.5759 2.59972 17.1363 3.25547 18.5922C3.91122 20.0481 4.87237 21.371 6.08404 22.4853C7.29571 23.5996 8.73417 24.4835 10.3173 25.0866C11.9004 25.6896 13.5972 26 15.3108 26C17.0243 26 18.7211 25.6896 20.3042 25.0866C21.8873 24.4835 23.3258 23.5996 24.5375 22.4853C25.7491 21.371 26.7103 20.0481 27.366 18.5922C28.0218 17.1363 28.3593 15.5759 28.3593 14C28.3593 12.4241 28.0218 10.8637 27.366 9.4078C26.7103 7.95189 25.7491 6.62902 24.5375 5.51472C23.3258 4.40042 21.8873 3.5165 20.3042 2.91345C18.7211 2.31039 17.0243 2 15.3108 2C13.5972 2 11.9004 2.31039 10.3173 2.91345C8.73417 3.5165 7.29571 4.40042 6.08404 5.51472C4.87237 6.62902 3.91122 7.95189 3.25547 9.4078C2.59972 10.8637 2.26221 12.4241 2.26221 14Z" stroke="#545454" stroke-width="2.66667" stroke-linecap="round" stroke-linejoin="round"/>
<path d="M12.411 14C12.411 14.7073 12.7165 15.3856 13.2603 15.8857C13.8041 16.3858 14.5417 16.6667 15.3107 16.6667M12.411 14C12.411 13.2928 12.7165 12.6145 13.2603 12.1144C13.8041 11.6143 14.5417 11.3334 15.3107 11.3334C16.0798 11.3334 16.8173 11.6143 17.3611 12.1144C17.9049 12.6145 18.2104 13.2928 18.2104 14M12.411 14L2.62463 11.3334M15.3107 16.6667C16.0798 16.6667 16.8173 16.3858 17.3611 15.8857C17.9049 15.3856 18.2104 14.7073 18.2104 14M15.3107 16.6667V26M18.2104 14L27.9968 11.3334" stroke="#545454" stroke-width="2.66667" stroke-linecap="round" stroke-linejoin="round"/>
</svg>
