<svg width="29" height="25" viewBox="0 0 29 25" fill="none" xmlns="http://www.w3.org/2000/svg">
<path d="M26.233 7.00175H21.4648C21.5178 6.96049 21.5722 6.9205 21.6238 6.87675C22.0366 6.53947 22.3693 6.12748 22.6011 5.66656C22.8329 5.20564 22.9587 4.70569 22.9708 4.198C22.9887 3.64259 22.8829 3.08968 22.66 2.57323C22.4371 2.05677 22.1018 1.58766 21.6746 1.1947C21.2474 0.801739 20.7374 0.493215 20.1759 0.288071C19.6144 0.0829262 19.0132 -0.0145095 18.4093 0.00174518C17.857 0.012685 17.3131 0.128351 16.8116 0.341504C16.3102 0.554656 15.862 0.860706 15.4951 1.2405C14.9875 1.78169 14.5748 2.39235 14.2718 3.0505C13.9688 2.39235 13.5561 1.78169 13.0485 1.2405C12.6816 0.860706 12.2334 0.554656 11.7319 0.341504C11.2305 0.128351 10.6866 0.012685 10.1343 0.00174518C9.53037 -0.0145095 8.92918 0.0829262 8.36767 0.288071C7.80615 0.493215 7.29615 0.801739 6.86898 1.1947C6.44181 1.58766 6.10648 2.05677 5.88357 2.57323C5.66067 3.08968 5.5549 3.64259 5.57276 4.198C5.58484 4.70569 5.7107 5.20564 5.94247 5.66656C6.17424 6.12748 6.50694 6.53947 6.91975 6.87675C6.9714 6.918 7.02577 6.958 7.07878 7.00175H2.31062C1.73384 7.00175 1.18068 7.21246 0.772836 7.58753C0.36499 7.9626 0.135864 8.47131 0.135864 9.00175V13.0017C0.135864 13.5322 0.36499 14.0409 0.772836 14.416C1.18068 14.791 1.73384 15.0017 2.31062 15.0017V23.0017C2.31062 23.5322 2.53975 24.0409 2.94759 24.416C3.35544 24.791 3.9086 25.0017 4.48538 25.0017H24.0582C24.635 25.0017 25.1881 24.791 25.596 24.416C26.0038 24.0409 26.233 23.5322 26.233 23.0017V15.0017C26.8097 15.0017 27.3629 14.791 27.7707 14.416C28.1786 14.0409 28.4077 13.5322 28.4077 13.0017V9.00175C28.4077 8.47131 28.1786 7.9626 27.7707 7.58753C27.3629 7.21246 26.8097 7.00175 26.233 7.00175ZM17.1262 2.5655C17.2984 2.3907 17.508 2.25052 17.7419 2.15372C17.9758 2.05693 18.2289 2.00561 18.4854 2.003H18.552C18.8526 2.00472 19.1498 2.06161 19.4262 2.17033C19.7026 2.27905 19.9526 2.43742 20.1616 2.63614C20.3706 2.83486 20.5344 3.06995 20.6433 3.32763C20.7523 3.5853 20.8042 3.86038 20.7961 4.13675C20.7932 4.37261 20.7374 4.60538 20.6322 4.82048C20.5269 5.03558 20.3745 5.22836 20.1844 5.38675C18.8945 6.43675 16.7537 6.80675 15.4271 6.93675C15.5902 5.613 16.0388 3.68924 17.1262 2.5655ZM8.41489 2.6105C8.83618 2.22311 9.40672 2.00433 10.0025 2.00175H10.0691C10.3255 2.00436 10.5787 2.05568 10.8125 2.15247C11.0464 2.24927 11.2561 2.38946 11.4283 2.56425C12.5687 3.74925 12.971 5.71424 13.1124 6.92924C11.7912 6.80424 9.6545 6.42924 8.36596 5.3805C8.1759 5.22211 8.02346 5.02933 7.91821 4.81423C7.81296 4.59913 7.75716 4.36635 7.75431 4.1305C7.74588 3.84954 7.79961 3.56994 7.91222 3.30865C8.02484 3.04736 8.19401 2.80984 8.40946 2.6105H8.41489ZM2.31062 9.00175H13.1844V13.0017H2.31062V9.00175ZM4.48538 15.0017H13.1844V23.0017H4.48538V15.0017ZM24.0582 23.0017H15.3592V15.0017H24.0582V23.0017ZM26.233 13.0017H15.3592V9.00175H26.233V13.0017Z" fill="#545454"/>
</svg>
