<svg width="24" height="26" viewBox="0 0 24 26" fill="none" xmlns="http://www.w3.org/2000/svg">
<path fill-rule="evenodd" clip-rule="evenodd" d="M6.88292 5.95625V4.6875C6.88292 3.4443 7.37678 2.25201 8.25586 1.37294C9.13493 0.49386 10.3272 0 11.5704 0C12.8136 0 14.0059 0.49386 14.885 1.37294C15.7641 2.25201 16.2579 3.4443 16.2579 4.6875V5.95625C17.8667 6.005 18.8517 6.1775 19.6029 6.80125C20.6442 7.66625 20.9192 9.12875 21.4679 12.055L22.4054 17.055C23.1767 21.17 23.5617 23.2275 22.4379 24.5825C21.3129 25.9375 19.2192 25.9375 15.0329 25.9375H8.10792C3.92042 25.9375 1.82792 25.9375 0.702919 24.5825C-0.422081 23.2275 -0.0345813 21.17 0.735419 17.055L1.67292 12.055C2.22292 9.13 2.49667 7.66625 3.53792 6.80125C4.28917 6.1775 5.27417 6.005 6.88292 5.95625ZM8.75792 4.6875C8.75792 3.94158 9.05423 3.22621 9.58168 2.69876C10.1091 2.17132 10.8245 1.875 11.5704 1.875C12.3163 1.875 13.0317 2.17132 13.5592 2.69876C14.0866 3.22621 14.3829 3.94158 14.3829 4.6875V5.9375H8.75792V4.6875Z" fill="#CCCCCC"/>
</svg>
