<svg width="24" height="29" viewBox="0 0 24 29" fill="none" xmlns="http://www.w3.org/2000/svg">
<path d="M19.5 2H4.5C3.11929 2 2 3.11929 2 4.5V24.5C2 25.8807 3.11929 27 4.5 27H19.5C20.8807 27 22 25.8807 22 24.5V4.5C22 3.11929 20.8807 2 19.5 2Z" stroke="#CCCCCC" stroke-width="2.5" stroke-linecap="round" stroke-linejoin="round"/>
<path d="M8.25 27V22H15.75V27M7 7H7.0125M17 7H17.0125M12 7H12.0125M12 12H12.0125M12 17H12.0125M17 12H17.0125M17 17H17.0125M7 12H7.0125M7 17H7.0125" stroke="#CCCCCC" stroke-width="2.5" stroke-linecap="round" stroke-linejoin="round"/>
</svg>
