<svg width="29" height="22" viewBox="0 0 29 22" fill="none" xmlns="http://www.w3.org/2000/svg">
<path d="M27.1875 8.4375H25.9219L22.6664 1.11328C22.5191 0.781907 22.2788 0.500366 21.9747 0.302771C21.6706 0.105175 21.3158 4.34086e-06 20.9531 0H7.17187C6.80923 4.34086e-06 6.45436 0.105175 6.15027 0.302771C5.84618 0.500366 5.60592 0.781907 5.45859 1.11328L2.20312 8.4375H0.9375C0.68886 8.4375 0.450403 8.53627 0.274587 8.71209C0.098772 8.8879 0 9.12636 0 9.375C0 9.62364 0.098772 9.8621 0.274587 10.0379C0.450403 10.2137 0.68886 10.3125 0.9375 10.3125H1.875V19.6875C1.875 20.1848 2.07254 20.6617 2.42417 21.0133C2.77581 21.365 3.25272 21.5625 3.75 21.5625H6.5625C7.05978 21.5625 7.53669 21.365 7.88832 21.0133C8.23996 20.6617 8.4375 20.1848 8.4375 19.6875V18.75H19.6875V19.6875C19.6875 20.1848 19.885 20.6617 20.2367 21.0133C20.5883 21.365 21.0652 21.5625 21.5625 21.5625H24.375C24.8723 21.5625 25.3492 21.365 25.7008 21.0133C26.0525 20.6617 26.25 20.1848 26.25 19.6875V10.3125H27.1875C27.4361 10.3125 27.6746 10.2137 27.8504 10.0379C28.0262 9.8621 28.125 9.62364 28.125 9.375C28.125 9.12636 28.0262 8.8879 27.8504 8.71209C27.6746 8.53627 27.4361 8.4375 27.1875 8.4375ZM8.4375 14.0625H5.625C5.37636 14.0625 5.1379 13.9637 4.96209 13.7879C4.78627 13.6121 4.6875 13.3736 4.6875 13.125C4.6875 12.8764 4.78627 12.6379 4.96209 12.4621C5.1379 12.2863 5.37636 12.1875 5.625 12.1875H8.4375C8.68614 12.1875 8.9246 12.2863 9.10041 12.4621C9.27623 12.6379 9.375 12.8764 9.375 13.125C9.375 13.3736 9.27623 13.6121 9.10041 13.7879C8.9246 13.9637 8.68614 14.0625 8.4375 14.0625ZM22.5 14.0625H19.6875C19.4389 14.0625 19.2004 13.9637 19.0246 13.7879C18.8488 13.6121 18.75 13.3736 18.75 13.125C18.75 12.8764 18.8488 12.6379 19.0246 12.4621C19.2004 12.2863 19.4389 12.1875 19.6875 12.1875H22.5C22.7486 12.1875 22.9871 12.2863 23.1629 12.4621C23.3387 12.6379 23.4375 12.8764 23.4375 13.125C23.4375 13.3736 23.3387 13.6121 23.1629 13.7879C22.9871 13.9637 22.7486 14.0625 22.5 14.0625ZM4.25508 8.4375L7.17187 1.875H20.9531L23.8699 8.4375H4.25508Z" fill="#CCCCCC"/>
</svg>
