<svg width="26" height="26" viewBox="0 0 26 26" fill="none" xmlns="http://www.w3.org/2000/svg">
<path d="M20.0388 18.2713L25.3925 23.6238L23.6238 25.3925L18.2713 20.0388C16.2797 21.6353 13.8025 22.5036 11.25 22.5C5.04 22.5 0 17.46 0 11.25C0 5.04 5.04 0 11.25 0C17.46 0 22.5 5.04 22.5 11.25C22.5036 13.8025 21.6353 16.2797 20.0388 18.2713ZM17.5312 17.3438C19.1173 15.7121 20.0032 13.5255 20 11.25C20 6.41625 16.0838 2.5 11.25 2.5C6.41625 2.5 2.5 6.41625 2.5 11.25C2.5 16.0838 6.41625 20 11.25 20C13.5255 20.0032 15.7121 19.1173 17.3438 17.5312L17.5312 17.3438Z" fill="#CCCCCC"/>
</svg>
