<svg xmlns="http://www.w3.org/2000/svg" viewBox="0 0 597.72 653.06"><defs><style>.cls-1{fill:#1d1d1b;}.cls-10,.cls-11,.cls-12,.cls-15,.cls-2,.cls-3,.cls-4,.cls-5,.cls-6,.cls-7,.cls-8,.cls-9{fill:none;}.cls-10,.cls-11,.cls-12,.cls-13,.cls-14,.cls-15,.cls-2,.cls-3,.cls-4,.cls-5,.cls-6,.cls-7,.cls-8,.cls-9{stroke:#1d1d1b;}.cls-10,.cls-14,.cls-2,.cls-3,.cls-4,.cls-5,.cls-6,.cls-7,.cls-8,.cls-9{stroke-miterlimit:10;}.cls-2{stroke-width:2px;}.cls-10,.cls-11,.cls-3,.cls-4,.cls-5,.cls-9{stroke-linecap:round;}.cls-12,.cls-13,.cls-14,.cls-3,.cls-6{stroke-width:6px;}.cls-4{stroke-width:10.66px;}.cls-5{stroke-width:16.06px;}.cls-7{stroke-width:3.49px;}.cls-8{stroke-width:6.73px;}.cls-9{stroke-width:10px;}.cls-10{stroke-width:11.16px;}.cls-11{stroke-linejoin:bevel;stroke-width:9.74px;}.cls-12,.cls-13,.cls-15{stroke-linejoin:round;}.cls-13{fill:#fcfcfc;}.cls-14{fill:#fff;}.cls-15{stroke-width:6.8px;}</style></defs><title>Asset 2</title><g id="Layer_2" data-name="Layer 2"><g id="Layer_2-2" data-name="Layer 2"><g id="얼굴"><path class="cls-1" d="M311.32,98.8s-36.13-9.39-71.79,12.52l76.52-1.82S319,98.8,311.32,98.8Z"/><path class="cls-1" d="M369.14,95.64c-14-10.47-44.74,3.29-44.74,3.29S320.62,110,336,108.19,369.14,95.64,369.14,95.64Z"/><ellipse class="cls-1" cx="278.93" cy="124.91" rx="6.65" ry="11.8"/><ellipse class="cls-1" cx="350.19" cy="123.68" rx="6.65" ry="11.8"/><path class="cls-2" d="M328.05,129.58s27.71,36.53-11.45,26.61"/><path class="cls-2" d="M307.19,183.32s18.78,18.79,27.13,0"/></g><g id="머리"><path class="cls-3" d="M289.41,53.31s-11.2-82.87-7.29,58.56"/><path class="cls-3" d="M288.85,53.3S263.56-12.92,270,114.55"/><path class="cls-3" d="M260.33,114.55s-9.1-124.11,10.19-64.33"/><path class="cls-3" d="M293.35,49.39s-26.15-84.17-16.67,60.83"/><path class="cls-3" d="M272,57.71s-13.34-85.48-9.42,56"/><path class="cls-3" d="M267.48,53.8s-25.29-66.22-18.82,61.25"/><path class="cls-3" d="M239,115.05S229.86-9,249.15,50.73"/><path class="cls-3" d="M272,49.89s-26.15-84.17-16.67,60.83"/><path class="cls-3" d="M253.72,54.93s-10.93-81.72-7,59.72"/><path class="cls-3" d="M249.62,58.71S224.51-9.85,231,117.62"/><path class="cls-3" d="M221.28,117.62s-9.28-121.76,10-62"/><path class="cls-3" d="M254.12,54.8S228-29.37,237.45,115.63"/><path class="cls-3" d="M272,53.19s-11.11-79.38-7.19,62.05"/><path class="cls-3" d="M267.48,49.28s-25.29-66.22-18.82,61.25"/><path class="cls-3" d="M210.93,55.22S185.64-11,192.11,116.47"/><path class="cls-3" d="M239,110.53s-9.1-124.11,10.19-64.33"/><path class="cls-3" d="M272,45.37S245.83-38.8,255.31,106.2"/><path class="cls-4" d="M280.75,45.37S196-38.8,225.89,106.2"/><path class="cls-3" d="M280.84,44.14s-11.1-79.38-7.19,62.06"/><path class="cls-3" d="M276.34,40.23S251.05-26,257.52,101.48"/><path class="cls-3" d="M247.82,101.48S238.73-22.62,258,37.16"/><path class="cls-3" d="M280.84,36.32s-27.17-77.13-17.69,67.87"/><path class="cls-5" d="M296.27,39.62s-85.87-79.38-57.84,62.05"/><path class="cls-3" d="M291.77,35.71S265.46-23.47,271.93,104"/><path class="cls-3" d="M262.23,104s-8.07-131.15,11.22-71.37"/><path class="cls-3" d="M296.27,31.8S269.1-45.34,278.58,99.66"/><path class="cls-3" d="M281.93,35.1s-12.13-72.34-8.21,69.09"/><path class="cls-3" d="M277.44,31.19S251.12-28,257.59,99.48"/><path class="cls-3" d="M247.89,99.48s-8.07-131.15,11.22-71.37"/><path class="cls-3" d="M209.64,101.87s-9.09-124.1,10.2-64.33"/><path class="cls-3" d="M203.2,113s-9.1-124.11,10.19-64.33"/><path class="cls-3" d="M206.91,110.83S197.81-13.28,217.1,46.5"/><path class="cls-3" d="M196.35,112.27S187.26-11.83,206.55,48"/><path class="cls-3" d="M206.42,115.05S197.33-9,216.61,50.73"/><path class="cls-3" d="M200,115.05S190.88-9,210.17,50.73"/><path class="cls-3" d="M211.85,113s-7-115.66,12.25-55.88"/><path class="cls-3" d="M224.78,114.55s-9.27-121.77,10-62"/><path class="cls-3" d="M235.22,114.55s-9.27-121.77,10-62"/><path class="cls-3" d="M220.88,114.34s-9.27-121.76,10-62"/><path class="cls-3" d="M227.87,114.55s-9.27-121.77,10-62"/><path class="cls-3" d="M239.14,117.62s-9.28-121.76,10-62"/><path class="cls-3" d="M247.42,116.62s-9.28-121.77,10-62"/><path class="cls-3" d="M252.5,116.62s-9.28-121.77,10-62"/><path class="cls-3" d="M230.82,117.12s-9.27-121.76,10-62"/><path class="cls-3" d="M238.74,112.42s-9.27-121.77,10-62"/><path class="cls-3" d="M281.93,27.27s-27.17-77.13-17.69,67.87"/><path class="cls-3" d="M264.07,40.12s-11.1-79.38-7.19,62.06"/><path class="cls-3" d="M259.58,36.21S233.26-23,239.73,104.5"/><path class="cls-3" d="M246.69,53.3s-25.28-66.22-18.82,61.25"/><path class="cls-3" d="M230,104.5S222-26.64,241.25,33.14"/><path class="cls-3" d="M264.07,32.3s-27.17-77.13-17.69,67.87"/><path class="cls-3" d="M271,34.21s-27.17-77.13-17.69,67.87"/><path class="cls-3" d="M259,58.82s-26-86.51-16.49,58.49"/><path class="cls-3" d="M227.5,41.23s-26.14-84.17-16.67,60.83"/><path class="cls-3" d="M219.68,41.23S193.54-42.94,203,102.06"/><path class="cls-3" d="M216.45,117s-9.27-121.77,10-62"/><path class="cls-3" d="M193.94,110.46s-9.28-121.77,10-62"/><path class="cls-3" d="M197.16,103.32s-9.27-121.77,10-62"/><path class="cls-3" d="M207.16,113.66s-6.87-118,12.42-58.22"/><path class="cls-3" d="M219.68,52.94S193.54-31.23,203,113.77"/><path class="cls-6" d="M291.77,28.89S243.85-19.47,200.32,51"/><path class="cls-3" d="M223.17,101.38S215.1-29.76,234.39,30"/><path class="cls-6" d="M284.91,25.77S237-22.58,193.46,47.84"/><path class="cls-7" d="M248.06,14.89S220.22-13.2,194.93,27.71"/><path class="cls-7" d="M251.34,16.46S223.5-11.63,198.21,29.28"/><path class="cls-8" d="M292.51,24.25s-46.69-62.37-89.1,28.46"/><path class="cls-3" d="M244.35,22.38c-19.29-59.78-11.22,71.36-11.22,71.36"/><path class="cls-6" d="M284.43,20.84S236.51-27.51,193,42.91"/><path class="cls-3" d="M303.91,44.13S339.39-14,331,104.19"/><path class="cls-3" d="M306.52,32.59S342-25.5,333.65,92.65"/><path class="cls-3" d="M345.24,104.41c8.35-118.16-28.4-53.72-28.4-53.72"/><path class="cls-3" d="M311.86,42s35.48-58.1,27.13,60.06"/><path class="cls-3" d="M339.36,33.1S374.84-25,366.49,93.16"/><path class="cls-3" d="M331,26.3s35.48-58.09,27.13,60.06"/><path class="cls-3" d="M329.09,17.73s35.48-58.09,27.13,60.07"/><path class="cls-3" d="M326.06,25.22s35.48-58.09,27.13,60.06"/><path class="cls-3" d="M325.16,28.07S360.64-30,352.29,88.13"/><path class="cls-3" d="M311.86,25S347.34-33.14,339,85"/><path class="cls-3" d="M330.8,46.55S366.45-14.16,358.1,104"/><path class="cls-3" d="M326.06,42s35.48-58.1,27.13,60.06"/><path class="cls-3" d="M318.11,42.53s35.48-58.09,27.13,60.06"/><path class="cls-3" d="M302.09,22.51s35.47-58.09,27.13,60.06"/><path class="cls-3" d="M334.56,92C342.91-26.15,307.43,32,307.43,32s55.93-69.26,51.77,26.52"/><path class="cls-3" d="M320.73,18s35.48-58.09,27.13,60.06"/><path class="cls-3" d="M321.63,32S357.11-26.15,348.76,92"/><path class="cls-3" d="M313.68,32.45s35.48-58.09,27.13,60.06"/><path class="cls-3" d="M303.91,37.12S339.39-21,331,97.18"/><path class="cls-3" d="M311.86,43.84S347.34-14.25,339,103.9"/><path class="cls-3" d="M325.16,29.88S360.64-28.21,352.29,90"/><path class="cls-3" d="M326.06,43.84s35.48-58.09,27.13,60.06"/><path class="cls-3" d="M318.11,44.35s35.48-58.1,27.13,60.06"/><path class="cls-3" d="M316.29,31.7s35.48-58.09,27.13,60.06"/><path class="cls-3" d="M321.63,41.14S357.11-17,348.76,101.2"/><path class="cls-3" d="M334.93,27.18s35.48-58.09,27.13,60.06"/><path class="cls-3" d="M335.83,41.14S371.31-17,363,101.2"/><path class="cls-3" d="M347.43,31.53s35.48-58.09,27.13,60.06"/><path class="cls-3" d="M343,25.61s35.48-58.09,27.13,60.06"/><path class="cls-3" d="M343.9,39.57S379.38-18.52,371,99.63"/><path class="cls-3" d="M339.87,26.3S375.35-31.79,367,86.36"/><path class="cls-3" d="M335.44,20.38s35.48-58.09,27.13,60.07"/><path class="cls-3" d="M336.34,34.34s35.47-58.09,27.13,60.06"/><path class="cls-3" d="M345.22,35s35.48-58.09,27.13,60.07"/><path class="cls-3" d="M327.88,41.64S363.36-16.45,355,101.7"/><path class="cls-3" d="M322.56,40.1S358-18,349.69,100.16"/><path class="cls-3" d="M303.91,27.18S339.39-30.91,331,87.24"/><path class="cls-3" d="M309.25,36.61s35.48-58.09,27.13,60.06"/><path class="cls-3" d="M301.31,27.18s35.47-58.09,27.13,60.06"/><path class="cls-3" d="M322.56,22.65S358-35.44,349.69,82.72"/><path class="cls-3" d="M323.45,36.61s35.48-58.09,27.13,60.06"/><path class="cls-3" d="M315.51,37.12S351-21,342.64,97.18"/><path class="cls-3" d="M306.52,46.16S342-11.93,333.65,106.22"/><path class="cls-3" d="M302.09,30.59s31.72-69.25,44.42,15.73"/><path class="cls-9" d="M278.41,85s-3.53-26.75,19.91-40.78"/><path class="cls-10" d="M332.13,82.82s8.89-25.4-20.42-39.65"/></g><g id="body"><g id="body-2" data-name="body"><path class="cls-6" d="M296.62,503.32l24.31-3.74A10.6,10.6,0,0,1,330.4,503c3.36,3.74,9.32,8.5,17.87,8.5"/><path class="cls-6" d="M288.4,491.58s51.65-16.43,59.87,7.05"/><path class="cls-6" d="M43.05,552.63l214.36-59.86a10.6,10.6,0,0,0,3-1.37c8.15-5.43,51.23-29.42,67.12-20.95,17.61,9.39,20.74,15.54,20.74,15.54"/><path class="cls-6" d="M78.41,622.65v16.9a10.52,10.52,0,0,0,10.52,10.51H381.87a10.51,10.51,0,0,0,10.51-11l-.36-7.91-7.36-160.71"/><path class="cls-6" d="M392,631.16c65.23-.11,54.3-62.36,52.69-70.11a10.59,10.59,0,0,1-.22-1.68L435.16,364c0-.25,0-.5-.06-.76-.7-5.79-9.63-73.88-42.22-74.3-34-.43-84.91-13.88-81.39-58.49"/><path class="cls-6" d="M260.06,213.06s36.76,16.22,54,14.28c9.92-1.11,34.58,7.39,47.35-21,11.41-25.37,21.13-72.79,0-128C341.65,26.9,245.23,61.31,232.47,66.12a10.55,10.55,0,0,1-2.87.64c-7,.53-32.67,3.87-36.75,60.09-.12,1.55-3.52-5.87-12.91-3.6-10.21,2.46-28.24,37.8,18.16,35.74,16.1-.72,6.36,24.59,24.46,35.81.44.27,8.53,36.77,8.12,39.25-1.57,9.46-16.47,7.42-42.45,19.23C153.79,268.93-7.42,278.8,3.53,544.89c0,0,7.83,127.87,128.35,59s129.91-67.31,129.91-67.31a45.35,45.35,0,0,0,29.74-9.39c2.06-1.6,5-1.5,7-3.14,6.35-5.18,1.41-6.62,5.76-7.43,0,0,17-1.48,20,6.57a4.1,4.1,0,0,0,1.35,1.88c3,2.32,11.62,8.55,18.63,8.34"/></g></g><path class="cls-11" d="M228.12,499.62c-35.75-16.79,2.82,89.91,8.8,49.47"/><path class="cls-12" d="M269,275.67c-16.31-4.69-40.29,39.13-40.29,39.13l-40.45-61.52c3.13-27.09,33.26-30.83,33.26-30.83Z"/><path class="cls-12" d="M269,275.67s7.69,5.65,5.5,34.53a42.52,42.52,0,0,0,9.42,30.2c.86,1,1.71,2.12,2.53,3.21,4.67,6.16,8.5,12.82,7.72,17.37"/><path class="cls-13" d="M315.5,312s-1.89-16.46,19.42,2.84c0,0,.24-20.74,5.23-27.86a9.3,9.3,0,0,0,1.75-5.87c-.78-12.42-4.69-49.06-23.56-40.36h0c-4.13,1,4.6,35.36,8.72,34.31a23.79,23.79,0,0,1-1.27,15.47l-7.45,17c-31.92,36.11-28.93,40.33-28.93,40.33"/><path class="cls-12" d="M98.81,369.38s2.73,54.28-7.53,74.4c0,0-91.43-32.61-71.34-45.87"/><path class="cls-13" d="M124.29,387.8s6.26,14.08,0,37.56"/><g id="노트북"><path class="cls-14" d="M228.6,552.63l94.66,27.49,225.61-24.26a12.78,12.78,0,0,0,11.13-10c6.86-31.65,29.59-137.72,34.65-175.86a7.33,7.33,0,0,0-8-8.25L385.7,383.24a14.13,14.13,0,0,0-12.13,10.37L323.26,580.12"/></g><path class="cls-15" d="M86.65,438.45s-9.17,87.3-4.35,103.28"/></g></g></svg>